<svg height='300px' width='300px'  fill="#000000" xmlns="http://www.w3.org/2000/svg" xmlns:xlink="http://www.w3.org/1999/xlink" version="1.1" x="0px" y="0px" viewBox="0 0 128 128" style="enable-background:new 0 0 128 128;" xml:space="preserve"><style type="text/css">
	.st0{display:none;}
	.st1{display:inline;}
	.st2{fill:none;stroke:#000000;stroke-width:0.1;stroke-miterlimit:10;}
</style><g class="st0"><g class="st1"><rect class="st2" width="128" height="128"></rect><line class="st2" x1="0" y1="124" x2="128" y2="124"></line><line class="st2" x1="0" y1="120" x2="128" y2="120"></line><line class="st2" x1="0" y1="116" x2="128" y2="116"></line><line class="st2" x1="0" y1="112" x2="128" y2="112"></line><line class="st2" x1="0" y1="108" x2="128" y2="108"></line><line class="st2" x1="0" y1="104" x2="128" y2="104"></line><line class="st2" x1="0" y1="100" x2="128" y2="100"></line><line class="st2" x1="0" y1="96" x2="128" y2="96"></line><line class="st2" x1="0" y1="92" x2="128" y2="92"></line><line class="st2" x1="0" y1="88" x2="128" y2="88"></line><line class="st2" x1="0" y1="84" x2="128" y2="84"></line><line class="st2" x1="0" y1="80" x2="128" y2="80"></line><line class="st2" x1="0" y1="76" x2="128" y2="76"></line><line class="st2" x1="0" y1="72" x2="128" y2="72"></line><line class="st2" x1="0" y1="68" x2="128" y2="68"></line><line class="st2" x1="0" y1="64" x2="128" y2="64"></line><line class="st2" x1="0" y1="60" x2="128" y2="60"></line><line class="st2" x1="0" y1="56" x2="128" y2="56"></line><line class="st2" x1="0" y1="52" x2="128" y2="52"></line><line class="st2" x1="0" y1="48" x2="128" y2="48"></line><line class="st2" x1="0" y1="44" x2="128" y2="44"></line><line class="st2" x1="0" y1="40" x2="128" y2="40"></line><line class="st2" x1="0" y1="36" x2="128" y2="36"></line><line class="st2" x1="0" y1="32" x2="128" y2="32"></line><line class="st2" x1="0" y1="28" x2="128" y2="28"></line><line class="st2" x1="0" y1="24" x2="128" y2="24"></line><line class="st2" x1="0" y1="20" x2="128" y2="20"></line><line class="st2" x1="0" y1="16" x2="128" y2="16"></line><line class="st2" x1="0" y1="12" x2="128" y2="12"></line><line class="st2" x1="0" y1="8" x2="128" y2="8"></line><line class="st2" x1="0" y1="4" x2="128" y2="4"></line><line class="st2" x1="124" y1="0" x2="124" y2="128"></line><line class="st2" x1="120" y1="0" x2="120" y2="128"></line><line class="st2" x1="116" y1="0" x2="116" y2="128"></line><line class="st2" x1="112" y1="0" x2="112" y2="128"></line><line class="st2" x1="108" y1="0" x2="108" y2="128"></line><line class="st2" x1="104" y1="0" x2="104" y2="128"></line><line class="st2" x1="100" y1="0" x2="100" y2="128"></line><line class="st2" x1="96" y1="0" x2="96" y2="128"></line><line class="st2" x1="92" y1="0" x2="92" y2="128"></line><line class="st2" x1="88" y1="0" x2="88" y2="128"></line><line class="st2" x1="84" y1="0" x2="84" y2="128"></line><line class="st2" x1="80" y1="0" x2="80" y2="128"></line><line class="st2" x1="76" y1="0" x2="76" y2="128"></line><line class="st2" x1="72" y1="0" x2="72" y2="128"></line><line class="st2" x1="68" y1="0" x2="68" y2="128"></line><line class="st2" x1="64" y1="0" x2="64" y2="128"></line><line class="st2" x1="60" y1="0" x2="60" y2="128"></line><line class="st2" x1="56" y1="0" x2="56" y2="128"></line><line class="st2" x1="52" y1="0" x2="52" y2="128"></line><line class="st2" x1="48" y1="0" x2="48" y2="128"></line><line class="st2" x1="44" y1="0" x2="44" y2="128"></line><line class="st2" x1="40" y1="0" x2="40" y2="128"></line><line class="st2" x1="36" y1="0" x2="36" y2="128"></line><line class="st2" x1="32" y1="0" x2="32" y2="128"></line><line class="st2" x1="28" y1="0" x2="28" y2="128"></line><line class="st2" x1="24" y1="0" x2="24" y2="128"></line><line class="st2" x1="20" y1="0" x2="20" y2="128"></line><line class="st2" x1="16" y1="0" x2="16" y2="128"></line><line class="st2" x1="12" y1="0" x2="12" y2="128"></line><line class="st2" x1="8" y1="0" x2="8" y2="128"></line><line class="st2" x1="4" y1="0" x2="4" y2="128"></line></g></g><g><g><path d="M21.9,64.5c2.7,0,5.1-1.5,6.4-3.7L41.4,65c-2,2-3.2,4.7-3.2,7.5c0,4.8,3.5,9.2,8.6,10.6l0.2,0.1l0.2,0c0,0,0.4,0,1.1,0    L40,94.6c-0.9-0.4-2-0.7-3-0.7c-4.1,0-7.4,3.3-7.4,7.4s3.3,7.4,7.4,7.4s7.4-3.3,7.4-7.4c0-1.9-0.7-3.6-1.9-5L52,83.2    c5.9,0,16,0,22.4,0.1L84,96.4c-1.2,1.3-1.9,3-1.9,5c0,4.1,3.3,7.4,7.4,7.4s7.4-3.3,7.4-7.4s-3.3-7.4-7.4-7.4c-1.1,0-2.1,0.2-3,0.7    l-8.2-11.4c1.3,0,2.1,0,2.2,0c5.9,0,10.4-4.1,10.4-9.3c0-3.1-1.6-5.9-4.2-7.7l13.2-4.3c1.3,2.2,3.7,3.7,6.4,3.7    c4.1,0,7.4-3.3,7.4-7.4s-3.3-7.4-7.4-7.4s-7.4,3.3-7.4,7.4c0,0.3,0,0.6,0,0.8l-13.3,4.3c0-0.3,0.1-0.7,0.1-1    c0-6.6-5.9-11.9-13-11.9c-2.5,0-4.9,0.6-6.9,1.8c-0.2-0.3-0.5-0.5-0.7-0.8V33.9c3.4-0.7,5.9-3.7,5.9-7.2c0-4.1-3.3-7.4-7.4-7.4    s-7.4,3.3-7.4,7.4c0,3.6,2.5,6.5,5.9,7.2v15.3c-2-1.1-4.4-1.7-6.8-1.7c-7.3,0-13.3,5.5-13.3,12.2c0,0.8,0.1,1.6,0.3,2.3l-12.7-4.1    c0-0.3,0-0.5,0-0.8c0-4.1-3.3-7.4-7.4-7.4s-7.4,3.3-7.4,7.4C14.5,61.2,17.8,64.5,21.9,64.5z M36.9,105.7c-2.4,0-4.4-2-4.4-4.4    s2-4.4,4.4-4.4s4.4,2,4.4,4.4S39.4,105.7,36.9,105.7z M93.8,101.3c0,2.4-2,4.4-4.4,4.4s-4.4-2-4.4-4.4s2-4.4,4.4-4.4    S93.8,98.9,93.8,101.3z M106.1,53.9c2.4,0,4.4,2,4.4,4.4s-2,4.4-4.4,4.4s-4.4-2-4.4-4.4S103.7,53.9,106.1,53.9z M58.9,26.7    c0-2.4,2-4.4,4.4-4.4s4.4,2,4.4,4.4s-2,4.4-4.4,4.4S58.9,29.1,58.9,26.7z M55,50.5c3.7,0,7.1,1.7,8.9,4.6l0.9,1.3l1.3-0.9    c1.8-1.3,4-2.1,6.4-2.1c5.5,0,10,4,10,8.9c0,1.1-0.2,2.2-0.7,3.2l-0.6,1.5l1.6,0.5c3,0.9,5,3.5,5,6.3c0,3.6-3.3,6.3-7.4,6.3    c-0.7,0-30.1-0.1-32.9-0.1c-3.7-1.1-6.2-4.1-6.2-7.6c0-2.7,1.5-5.2,4-6.7l1.3-0.8l-0.7-1.3c-0.7-1.3-1.1-2.7-1.1-4.1    C44.7,54.6,49.3,50.5,55,50.5z M21.9,52.7c2.4,0,4.4,2,4.4,4.4c0,2.4-2,4.4-4.4,4.4s-4.4-2-4.4-4.4C17.5,54.7,19.5,52.7,21.9,52.7    z"></path></g></g></svg>