<svg height='300px' width='300px'  fill="#000000" xmlns="http://www.w3.org/2000/svg" viewBox="0 0 100 100" x="0px" y="0px"><title>Search</title><g data-name="Layer 41"><path d="M33.5,32.16H50.2a1,1,0,0,0,1-1V10.63a1,1,0,0,0-1-1H33.5a1,1,0,0,0-1,1V31.16A1,1,0,0,0,33.5,32.16Zm1-20.53H49.2V30.16H34.5Z"></path><path d="M54.05,75.71H10.13a1,1,0,1,0,0,2H54.05a1,1,0,0,0,0-2Z"></path><path d="M95.15,86.59,82.9,72.73A3.37,3.37,0,0,0,78.85,72l-4.18-4.73A20.56,20.56,0,0,0,60.8,34.17V5a1,1,0,0,0-1-1H24.25l-.27,0-.09,0a1,1,0,0,0-.29.19L4.29,23.6a1,1,0,0,0-.19.29.36.36,0,0,0,0,.09,2.38,2.38,0,0,0,0,.26s0,0,0,.06v62a1,1,0,0,0,.3.71,1,1,0,0,0,.7.29H5l54.79-1a1,1,0,0,0,1-1V75.05A20.42,20.42,0,0,0,69,72.29L73.16,77a3.2,3.2,0,0,0-.58,1.67,3.34,3.34,0,0,0,.84,2.45L85.67,95A3.39,3.39,0,0,0,88,96.11h.21a3.34,3.34,0,0,0,2.23-.85l4.43-3.91a3.39,3.39,0,0,0,.29-4.77ZM23.3,7.41V23.3H7.41ZM58.8,84.33,6,85.24V25.3H24.3a1,1,0,0,0,1-1V6H58.8V34A20.52,20.52,0,0,0,45,39H10.13a1,1,0,0,0,0,2H43a20.49,20.49,0,0,0-4.88,10.25h-28a1,1,0,0,0,0,2H37.87s0,.06,0,.08a20.46,20.46,0,0,0,2,10.18H10.13a1,1,0,1,0,0,2H41a21.14,21.14,0,0,0,2,2.73,20.43,20.43,0,0,0,14.17,6.92c.43,0,.86,0,1.29,0l.35,0Zm9.69-14.12c-.28.19-.56.38-.85.55A18.56,18.56,0,0,1,60.8,73c-.34,0-.67.06-1,.08l-1,.06a18.56,18.56,0,0,1-14.31-6.26c-.41-.46-.78-.93-1.13-1.41s-.44-.66-.65-1-.42-.66-.6-1a18.54,18.54,0,0,1-2.22-10.26c0-.33.06-.66.11-1s.09-.67.15-1A18.41,18.41,0,0,1,45.76,41c.11-.11.22-.23.34-.33s.55-.45.83-.67c.45-.36.92-.69,1.39-1a18.56,18.56,0,0,1,10.09-3l.39,0,1,0c.33,0,.66.06,1,.1A18.57,18.57,0,0,1,73.32,65.73c-.2.26-.42.52-.64.78s-.42.52-.65.77c-.41.43-.84.85-1.29,1.25a16.61,16.61,0,0,1-1.41,1.13C69.06,69.86,68.77,70,68.49,70.21Zm2.17,1c.48-.35,1-.73,1.4-1.13a17.07,17.07,0,0,0,1.29-1.26l3.92,4.43-.2.18-2.49,2.21h0Zm22.88,18.7-4.43,3.91a1.38,1.38,0,0,1-1.94-.12L74.91,79.79A1.38,1.38,0,0,1,75,77.85l.12-.1h0l2.1-1.86,2.21-2a1.36,1.36,0,0,1,1.94.12L93.66,87.92a1.38,1.38,0,0,1,.34,1A1.41,1.41,0,0,1,93.54,89.86Z"></path><path d="M70.16,44.22a15.53,15.53,0,0,0-9.36-5.11c-.33,0-.67-.08-1-.11l-.42,0a5.61,5.61,0,0,0-.58,0,15.74,15.74,0,0,0-4,.4,14.66,14.66,0,0,0-2,.65,15.18,15.18,0,0,0-2.12,1A16,16,0,0,0,48,42.86a15.58,15.58,0,0,0-4.92,8.39c-.07.34-.14.67-.19,1s-.08.66-.11,1c0,.13,0,.26,0,.39a15.54,15.54,0,0,0,2.76,9.87c.24.34.49.67.76,1,.13.16.24.32.38.47s.35.35.52.53a15.61,15.61,0,0,0,11.23,4.75h.37c.33,0,.66,0,1,0s.66-.08,1-.13a15.77,15.77,0,0,0,4.84-1.57c.3-.16.6-.32.9-.5s.56-.36.84-.55a16.48,16.48,0,0,0,1.42-1.11,13.84,13.84,0,0,0,1.27-1.27c.23-.26.44-.52.65-.78s.41-.55.6-.83A15.66,15.66,0,0,0,70.16,44.22ZM70,61.92a9.8,9.8,0,0,1-.58.85c-.2.27-.42.53-.64.78a15.34,15.34,0,0,1-1.26,1.29A12.38,12.38,0,0,1,66,65.93c-.28.19-.56.38-.85.55s-.61.32-.92.47A13.58,13.58,0,0,1,60.8,68c-.34.06-.67.11-1,.14s-.67.07-1,.08a13.71,13.71,0,0,1-8.62-2.75c-.4-.31-.79-.64-1.17-1s-.57-.55-.83-.85l-.12-.15a13.58,13.58,0,0,1-3.29-9.75c0-.17,0-.34.06-.51,0-.33.07-.67.13-1a8.62,8.62,0,0,1,.21-1A13.65,13.65,0,0,1,58.4,40.93h.86l.54.06c.33,0,.67.07,1,.13A13.65,13.65,0,0,1,70,61.92Z"></path></g></svg>